<?xml version="1.0" standalone="no"?>
<!DOCTYPE svg PUBLIC "-//W3C//DTD SVG 1.1//EN" "http://www.w3.org/Graphics/SVG/1.1/DTD/svg11.dtd" >
<!--
2013-9-30: Created.
-->
<svg>
<metadata>
Created by iconfont
</metadata>
<defs>

<font id="iconfont" horiz-adv-x="1024" >
  <font-face
    font-family="iconfont"
    font-weight="500"
    font-stretch="normal"
    units-per-em="1024"
    ascent="896"
    descent="-128"
  />
    <missing-glyph />
    
    <glyph glyph-name="qianjin" unicode="&#58979;" d="M325.98621313-95.99998218999997l425.17436999 425.17437 53.24272875 52.76306531L326.4658775 864 219.59668813 757.99420594l372.21943968-375.38522344-372.21943968-372.12350719L325.98621313-95.99998218999997z"  horiz-adv-x="1024" />

    
    <glyph glyph-name="iconfont" unicode="&#58905;" d="M769.41099962 407.53995573c-1.60345445 2.42921935-3.47132336 4.73400839-5.60784865 6.87053371-0.04807536 0.04666139-0.09897867 0.08625284-0.148468 0.13291421L322.8560032 855.34349738c-17.04695497 17.04836896-44.70300941 17.04836896-61.76551817-0.0141398-17.04836896-17.04836896-17.04836896-44.70300941 0-61.76551817l410.04317896-410.04317897L261.07634522-26.521104530000002c-17.04836896-17.04836896-17.03422913-44.71856319 0.01413981-61.78107197 17.04836896-17.04554099 44.71856319-17.04554099 61.76551817 0l440.79867977 440.80009374c0.04948933 0.04666139 0.10039264 0.08625284 0.148468 0.13574217C778.73337636 367.54833103 780.59700333 390.59904934 769.41099962 407.53995573z"  horiz-adv-x="1024" />

    
    <glyph glyph-name="forward" unicode="&#59017;" d="M112.64-96l641.28 480L112.64 864 112.64-96zM750.08 864l0-480L750.08-96l161.28 0L911.36 864 750.08 864z"  horiz-adv-x="1024" />

    
    <glyph glyph-name="tuofutikuxin" unicode="&#58956;" d="M276.70472375 652.4354559999999c-27.45332492 0-51.36727861-20.59827872-51.36727861-48.05326064l0-397.68215705 0-1.65700898c0 0 2.48551348-64.62335052 50.53877411-18.22709886 0.03479719 0.00828505 0.48053261 0.01491308 0.51532981 0.02319813l31.07057552 47.43353927c11.00088267 11.00088267 28.73253584 11.00088267 39.73341851 0l39.78147179-56.8967176C416.0923198 156.59042953000005 422.52151467 185.36273358999995 424.17852365 198.79444844L424.17852365 604.38219536c0 27.45498192-20.59993573 48.05326064-48.05326063 48.05326064L276.70472375 652.4354559999999zM97.74775309 259.72432591999996l61.30933254 0L159.05708563 508.27567408l-61.30933254 0c-45.75664619 0-82.85044939-37.0938032-82.85044939-82.85044939l0-82.85044938C14.8973037 296.81812912 51.9911069 259.72432591999996 97.74775309 259.72432591999996zM97.74775309 591.12612347l61.30933254 0 0 40.21063708C159.05708563 677.3436151 197.66539504 713.74478853 243.67224958 713.74478853l166.60562567 0C456.2847298 713.74478853 492.11589215 677.3436151 492.11589215 631.33676055L492.11589215 591.12612347l491.30316483 0 11.10693125 0c2.84342742 0.4424214 22.77227452 4.21045984 8.65952898 20.58999367C971.80673799 633.94820673 951.10738173 672.07598353 951.10738173 715.4017975300001c0 43.37055324 20.74575252 81.53147022 52.175899 103.75361776C1018.24441488 836.65508722 994.18961541 839.67747161 994.18961541 839.67747161l-10.77055843 0L97.74775309 839.67747161c-45.75664619 0-82.85044939-37.0938032-82.85044939-82.85044939l0-82.85044939C14.8973037 628.21992666 51.9911069 591.12612347 97.74775309 591.12612347zM951.10738173 384c0 43.37055324 20.74575252 81.53147022 52.175899 103.75361776C1018.24441488 505.25328967 994.18961541 508.27567408 994.18961541 508.27567408l-10.77055843 0L492.11589215 508.27567408l0-248.55134816 491.30316483 0 11.10693125 0c2.84342742 0.4424214 22.77227452 4.21045984 8.65952898 20.58999369C971.80673799 302.54640917999996 951.10738173 340.67418600999997 951.10738173 384zM951.10738173 52.59820247000005c0 43.37055324 20.74575252 81.53147022 52.175899 103.75361776C1018.24441488 173.85149215 994.18961541 176.87387652999996 994.18961541 176.87387652999996l-10.77055843 0L492.11589215 176.87387652999996l0-66.69626874c-3.31401797-22.50715308-36.47573885-67.53802933-85.26471148-32.70438639l-51.36065058 43.77817745c-18.43588199 18.43422498-35.3058905 18.43422498-53.74011549 0l-39.0126196-41.05074066c-0.0563383-0.01325607-0.41756626-0.02485514-0.47390457-0.03811121C175.6271755 16.144004750000022 159.05708563 120.64824757999997 159.05708563 120.64824757999997l0 2.77714705L159.05708563 176.87387652999996l-61.30933254 0c-45.75664619 0-82.85044939-37.0938032-82.85044939-82.85044936l0-82.85044939c0-45.75664619 37.0938032-82.85044939 82.85044939-82.85044939l885.67130389 0 11.10693125 0c2.84342742 0.4424214 22.77227452 4.21045984 8.65952898 20.58999368C971.80673799-28.855388329999982 951.10738173 9.27238847000001 951.10738173 52.59820247000005z"  horiz-adv-x="1024" />

    
    <glyph glyph-name="shu1" unicode="&#58881;" d="M852.002-104.016h-602.794v828.841h263.721v-343.779l133.406 101.323 130.317-101.323v343.779h150.699v-753.492c0-41.573-33.775-75.347-75.349-75.347zM646.335 531.741l-95.73-75.348v306.106h188.371v-306.106l-92.641 75.348zM136.186 800.173v-37.674c0-20.825 16.849-37.676 37.673-37.676h37.676v-828.841h-37.676c-41.647 0-75.347 33.774-75.347 75.348v828.842c0 41.647 33.7 75.348 75.347 75.348h678.143c27.814 0 51.802-15.233 64.901-37.674h-743.044c-20.825 0-37.673-16.85-37.673-37.674z"  horiz-adv-x="1024" />

    
    <glyph glyph-name="yanjiuzhongxin" unicode="&#59387;" d="M747.89232531 152.71047719m-163.23905593 0a163.23905722 163.23905722 0 1 1 326.47811313 0 163.23905722 163.23905722 0 1 1-326.47811313 0ZM491.48202042 180.16948384v0.56811718-0.56811718zM491.2926476 179.03324818c0 0.37874435 0 0.75749001 0.18937282 1.13623566-0.18937282-0.37874435-0.18937282-0.75749001-0.18937282-1.13623566zM49.29733611 58.024249510000004h0.37874566c-0.37874435 3.97682157-0.37874435 8.14301597-0.37874566 12.30920908v-12.30920908zM495.45884199 206.30288198000005c-0.56811718-2.65121438-1.13623437-5.30242877-1.51498001-7.95364314 0.56811718 2.65121438 0.94686283 5.30242877 1.51498001 7.95364314zM493.75449046 197.21300448c-0.37874435-2.46184156-0.75749001-4.92368439-1.13623566-7.57489878 0.37874435 2.46184156 0.75749001 5.11305594 1.13623566 7.57489878zM558.70924277-22.64841624999997c-7.00678031 7.76427031-17.04352065 12.11983754-27.45900665 12.11983625h-325.72062311c-42.04068573 0-77.64270704 32.7614354-80.48329424 74.23400263v10.79423035c2.84058721 41.28319572 37.11700133 73.66588547 78.96831422 73.66588547H489.77766888v4.92368439c0.18937282 2.65121438 0.18937282 5.11305594 0.18937152 7.95364315v1.89372437c0.18937282 2.65121438 0.18937282 5.49180159 0.37874566 8.14301467v0.56811848c0.18937282 2.46184156 0.37874435 5.11305594 0.75749001 7.57489749 0 0.56811718 0.18937282 1.13623437 0.18937153 1.70435284 0.37874435 2.65121438 0.56811718 5.30242877 0.94686283 7.95364314l0.18937283 0.75748872c0.37874435 2.46184156 0.75749001 5.11305594 1.13623437 7.57489878l0.18937283 1.13623436c0.56811718 2.65121438 0.94686283 5.30242877 1.51497871 7.95364314l0.18937282 0.94686284c0.56811718 2.46184156 1.13623437 5.11305594 1.70435285 7.57489749l0.18937154 0.75749002c0.75749001 2.65121438 1.3256072 5.30242877 2.08309719 7.95364312v0.37874566l0.56811718 0.18937153v-0.37874436c27.45900663 96.01183487 107.75292675 167.40525031 206.22660447 183.88065508v-0.18937282c12.49858189 2.08309721 25.18653662 3.21933156 37.87449134 3.40870438h3.78744875c11.36234753 0 22.72469505-0.75749001 34.08704258-2.27247003V813.99909224c0 37.49574569-33.89766976 67.98471105-75.74898267 67.98471235H125.04631877c-41.85131291 0-76.31709984-32.0039454-75.74898266-71.77216108v-739.87818492c0-4.16619439 0.18937282-8.14301597 0.37874566-12.30920908 5.68117312-81.24078295 73.09776829-144.11243936 154.52792405-144.30181089H533.33333333c32.38268975 0 49.04746604 38.63198134 26.70151663 62.30353793l-1.32560719 1.3256072zM489.77766888 152.89985002000003c0 2.65121438 0 5.11305594 0.18937152 7.5748975 0-2.46184156-0.18937282-5.11305594-0.18937152-7.5748975zM497.35256638 214.82464230999994c-0.56811718-2.46184156-1.13623437-5.11305594-1.70435156-7.57489749 0.56811718 2.46184156 1.13623437 4.92368439 1.70435156 7.57489749zM497.73131202 215.39276079c0.56811718 2.65121438 1.3256072 5.30242877 2.0830972 7.95364314-0.75749001-2.46184156-1.51498002-5.11305594-2.0830972-7.95364314zM491.2926476 179.222621c-0.37874435-2.65121438-0.56811718-5.11305594-0.75748871-7.57489749 0.18937282 2.46184156 0.56811718 5.11305594 0.75748871 7.57489749zM202.68902581 106.69297119999999c-20.83097069 0-37.87449134-16.85414911-37.87449133-37.87449134v-1.32560718c0.75749001-20.45222503 18.17975631-36.54888414 38.82135286-36.54888414h261.14461645c20.64159786 0 37.49574569 16.66477629 37.49574698 37.30637414 0 3.59807722-0.56811718 7.19615314-1.51498001 10.60485753l-0.18937283 0.7574887a37.72299281 37.72299281 0 0 1-36.17013849 27.08026229H202.68902581zM955.82328262-76.05144951c-6.62803595 0-13.2560719 2.27247003-18.55850066 6.81740878l-122.52397996 105.66983085c-11.93046471 10.22611316-13.2560719 28.21649534-3.02995875 40.14696006 10.22611316 11.93046471 28.21649534 13.2560719 40.14696006 3.02995873l122.52397997-105.66982955c11.93046471-10.22611316 13.2560719-28.21649534 3.02995874-40.14696136-5.68117312-6.43866313-13.63481627-9.84736751-21.5884594-9.84736751z"  horiz-adv-x="1024" />

    
    <glyph glyph-name="fanhui" unicode="&#59297;" d="M999.82097977-54.18578603000003s-9.97433571-25.68141027-23.25364622 0c0 0-148.42096071 447.95508963-510.22770404 335.12463816v-139.05240064s-5.80263595-81.75646947-77.1117989-28.50991901L33.4823424 420.46189454s-75.42727453 41.04715264 4.58176398 97.190945L397.58987037 826.5578587s54.05269902 38.55065657 67.0652359-24.67023075l0.39957846-150.03791588c0.06873202-0.06756693 674.35573931-32.35193629 534.76629504-706.0354981z"  horiz-adv-x="1024" />

    
    <glyph glyph-name="xiaoxi" unicode="&#58972;" d="M673.90236445 408.23921778c0 100.51128889-59.88124445 158.29674667-112.76515556 185.69216V784.76174222a58.97784889 58.97784889 0 0 1-26.36003555 49.16337778 59.01084445 59.01084445 0 0 1-55.53493334 5.23377778c-9.3184-3.91850667-9.53116445-4.01408-256.27306666-212.56760889h-110.07772445c-54.67249778 0-100.89472-44.81934222-100.89472-97.83978667v-249.60568889c0-52.21603555 46.22108445-96.32426667 100.89472-96.32426666h101.79811556c257.02058667-207.34179555 257.25155555-207.43964445 268.20152889-211.22275556a59.23384889 59.23384889 0 0 1 19.23185778-3.20853333 59.05749333 59.05749333 0 0 1 32.50289777 9.73937777 58.99036445 58.99036445 0 0 1 26.35889778 44.95132445c0.21162667 2.78755555 0.22983111 2.93774222 0.17066667 194.31765333 52.31047111 29.70282667 112.74695111 90.50453333 112.74695111 190.84060445zM71.01098667 279.14353778v249.60568889c0 19.38432 19.59594667 38.82666667 41.87932445 38.82666666h100.74225777v-325.73781333H112.89031112c-22.28451555-0.00227555-41.87932445 18.61404445-41.87932445 37.30545778z m431.10968889-251.73788445c-1.28682667 0.44259555-215.71697778 178.68003555-253.10435556 209.76071112V571.3408c33.56216889 28.35569778 251.98819555 212.95104 253.10435556 213.42208 0-0.58709333 0.07623111-756.56760889 0-757.35608889z m35.57831111 244.82360889V539.37265778c33.04106667-17.94275555 77.18798222-55.95932445 77.18798222-131.13344 0-75.15249778-44.14577778-115.97482667-77.18798222-136.00995556z m208.39879111-67.52711111c-5.84135111 0-14.44636445 1.72942222-21.97617778 10.04657778-13.79783111 15.44760889-13.87178667 36.90382222-0.15701333 54.63836444 35.27338667 45.68177778 52.44700445 91.69351111 52.44700445 140.64184889 0.15246222 63.02947555-36.57728 119.16288-52.36849778 140.35399111-13.10264889 17.61507555-13.52476445 39.09404445-0.99896889 53.42321778 7.87683555 7.39783111 15.56138667 11.14339555 23.20611555 11.14339556 7.10883555 0 14.44636445-3.13116445 23.74542222-10.18311112 47.06986667-53.59729778 73.30929778-122.96760889 73.30929778-194.7591111 0-71.55939555-25.81845333-140.48824889-72.73016888-194.0844089-3.92078222-5.72416-13.98784-11.21962667-24.47701334-11.21962666zM864.51086222 64.38684445000001c-7.98833778 0-15.86631111 3.59196445-23.43822222 10.68259555-13.25511111 15.40664889-13.40757333 40.45710222-0.07395555 55.51900445 63.8976 72.57998222 97.63043555 169.09198222 97.59061333 279.09688888 0.03754667 109.99921778-33.73283555 206.55217778-97.63043556 279.22659556-13.10378667 14.92764445-13.06168889 40.10211555 0.03754667 54.98311111 7.41489778 7.49112889 15.44760889 11.37322667 23.82165333 11.37322667 8.18289778 0 16.67527111-3.96743111 22.6872889-10.62456889 76.17080889-86.75555555 118.03079111-205.70908445 117.93408-334.91968 0.09671111-129.26976-41.68590222-248.01166222-117.64622223-334.34624-4.41457778-5.07448889-13.13905778-10.99093333-23.28234667-10.99093333z"  horiz-adv-x="1024" />

    
    <glyph glyph-name="xiazai" unicode="&#59210;" d="M588.288 172.032H211.456c-18.432 0-33.28-14.848-33.28-33.28s14.848-33.28 33.28-33.28h376.832c18.432 0 33.28 14.848 33.28 33.28s-14.848 33.28-33.28 33.28z m0.512 256H211.456c-18.432 0-33.28-14.848-33.28-33.28s14.848-33.28 33.28-33.28h376.832c18.432 0 33.28 14.848 33.28 33.28s-14.336 33.28-32.768 33.28zM983.04 301.056c-2.56 5.632-8.192 15.36-20.48 15.36h-89.6V510.464c0 19.968-16.384 36.352-36.352 36.352h-163.84c-19.968 0-35.84-16.384-35.84-36.352v-194.048h-93.696c-11.776 0-20.48-5.632-24.576-15.872-4.608-11.776-2.56-26.624 5.632-34.304L725.504 64c7.168-7.168 16.384-10.752 25.6-10.752 9.216 0 18.432 3.584 25.6 10.752l202.24 202.24c7.68 7.68 9.216 22.528 4.096 34.816zM751.104 116.224L606.208 261.632h85.504V491.52h125.952v-229.888H896L751.104 116.224zM522.752 233.472c-12.8 12.288-26.624 27.136-29.696 36.864-3.072 9.728 0 20.992 3.584 29.696H211.456c-18.432 0-33.28-14.848-33.28-33.28s14.848-33.28 33.28-33.28h311.296zM747.008 26.624c-9.728-0.512-22.528 10.752-33.28 22.016v-50.176c0-10.24-8.704-18.944-18.944-18.944H123.392c-10.24 0-18.944 8.704-18.944 18.944V625.152l165.888 141.312v-148.992h-87.552v-66.56h154.112V787.968h357.888c10.24 0 18.944-8.704 18.944-18.944v-205.312h66.56V769.536c0 47.104-38.4 85.504-85.504 85.504h-412.16l-1.024-0.512c-7.168-0.512-13.824-3.072-19.456-7.68L49.664 666.112c-5.12-4.608-8.704-10.24-10.752-16.896h-1.536v-651.264c0-47.104 38.4-85.504 85.504-85.504h571.392c47.104 0 85.504 38.4 85.504 85.504v44.032c-12.288-10.24-22.016-15.36-32.768-15.36z"  horiz-adv-x="1024" />

    
    <glyph glyph-name="suoxiao" unicode="&#58923;" d="M975.3471875-9.717187500000023L764.2765625 201.375c126.7125 160.5075 115.9978125 394.0078125-32.1571875 542.16375-159.7115625 159.688125-418.6546875 159.688125-578.3671875 0-159.7575-159.7125-159.7575-418.6096875 0-578.3203125 148.4625-148.4409375 382.666875-158.8978125 543.2090625-31.36875l210.9778125-210.995625c18.639375-18.6159375 48.815625-18.6159375 67.408125 0 18.6403125 18.6159375 18.6403125 48.81375 0 67.4296875zM667.55 230.45156250000002c-124.25625-124.23375-325.6396875-124.23375-449.851875 0-124.254375 124.2309375-124.254375 325.6378125 0 449.848125 124.2121875 124.2346875 325.595625 124.2346875 449.851875 0 124.209375-124.2103125 124.209375-325.6171875 0-449.8471875z m-42.159375 269.5903125H261.85625c-25.119375 0-45.4415625-20.3484375-45.4415625-45.440625 0-25.096875 20.323125-45.44625 45.440625-45.44625H625.390625c25.0725 0 45.4415625 20.3484375 45.4415625 45.4453125 0 25.0921875-20.3690625 45.4415625-45.440625 45.4415625z"  horiz-adv-x="1024" />

    
    <glyph glyph-name="down" unicode="&#58906;" d="M975.98322915 532.93274453l-414.83414186-453.63145386a65.29133227 65.29133227 0 0 0-98.07680854 0l-414.82831644 453.63145386c-20.25499307 21.3909504-26.51149653 52.56278471-16.0432128 80.09955556s35.72731449 46.76066418 65.08161707 49.38210418h829.32458382a76.69168355 76.69168355 0 0 0 65.30880853-49.26559574 76.808192 76.808192 0 0 0-15.93252978-80.216064z"  horiz-adv-x="1024" />

    
    <glyph glyph-name="zhuanjia" unicode="&#58930;" d="M194.31936 439.59808l63.49824-26.01984L480.93696 321.536c1.59744-0.68608 3.18976-1.13664 4.89472-1.59744 9.55904-2.26816 17.97632-3.40992 25.94304-3.40992 12.40064 0 23.89504 2.72896 36.97664 8.4224 0.45568 0.2304 0.91136 0.45568 1.36704 0.56832l216.064 105.472 62.2336 30.26432 55.86432 27.30496v-235.52a31.80544 31.80544 0 0 1 31.86176-31.85664 31.80544 31.80544 0 0 1 31.86176 31.85664V519.96672l54.37952 26.51136a31.32416 31.32416 0 0 1 15.25248 16.04096c11.0336 25.37472-0.68608 55.0656-29.01504 67.24096l-463.64672 150.87104c-31.96928 7.28064-45.85472 3.75296-67.92704-3.3024-5.00736-1.59232-10.69568-3.41504-17.86368-5.34528-1.47968-0.45568-3.072-0.91136-4.43904-1.59232L22.87104 588.91264a32 32 0 0 1-16.384-16.384c-11.15136-25.48736 0.56832-55.18336 26.624-66.56l160.99328-66.33472M766.1824 354.19136l-216.064-105.472a6.73792 6.73792 0 0 1-1.36704-0.56832c-13.08672-5.68832-24.576-8.4224-36.97664-8.4224-7.96672 0-16.384 1.14176-25.94304 3.40992a35.74784 35.74784 0 0 0-4.89472 1.59744l-223.11936 92.04736-63.49824 26.01984-0.21504 0.04096v-216.75008c0-4.43904 0.91136-8.87296 2.72896-12.96896 0 0 8.64768-19.23072 11.37664-24.45824C248.37632 33.792 370.4576-16.60928 512-16.60928c137.55904 0 259.40992 49.82784 303.104 124.01664 2.61632 4.43392 11.15136 20.48 11.15136 20.48 2.38592 4.5568 3.75296 9.6768 3.75296 14.90432v233.81504c0 2.84672-0.91136 5.34528-1.59744 7.84896l-62.22848-30.26432zM916.14208 167.936a31.80544 31.80544 0 0 1-31.86176-31.85664v-62.91968a31.80544 31.80544 0 0 1 31.86176-31.86176 31.81056 31.81056 0 0 1 31.86176 31.86176v62.91968a31.88736 31.88736 0 0 1-31.86176 31.85664z"  horiz-adv-x="1024" />

    
    <glyph glyph-name="hebingxingzhuang" unicode="&#58893;" d="M992 378.07483875C992 118.89548344000002 777.10451656-96 506.07483875-96 246.89548344-96 32 118.89548344000002 32 378.07483875 32 649.10451656 246.89548344 864 506.07483875 864 777.10451656 864 992 649.10451656 992 378.07483875zM273.78064531 352.35612937999997l157.34709657-162.84387094a5.12516156 5.12516156 0 0 1 7.27225781-0.09290344l341.29032281 335.87612906a5.07354844 5.07354844 0 0 1-0.01032281 7.26709688l-20.39225813 20.13935437a5.80129031 5.80129031 0 0 1-7.62838687 0.36129094l-312.9909675-260.74838719c-2.13677437-1.77548344-5.77032281-1.87870969-8.03096813-0.14451656L302.05419313 390.72a5.05290281 5.05290281 0 0 1-7.16903157-1.05290344L273.26967781 360.25806468999997a6.29677406 6.29677406 0 0 1 0.51612844-7.90193532z"  horiz-adv-x="1024" />

    
    <glyph glyph-name="dayin" unicode="&#59721;" d="M716.8 520.53333333h68.26666667v-68.26666666h-68.26666667v68.26666666z m204.8 136.53333334v-477.86666667H785.06666667v-273.06666667H238.93333333V179.20000000000005H102.4V657.06666667h136.53333333V861.86666667h546.13333334v-204.8h136.53333333z m-614.4 0h409.6V793.6H307.2v-136.53333333z m409.6-341.33333334H307.2v-341.33333333h409.6V315.73333333000005z m136.53333333 273.06666667H170.66666667v-341.33333333h68.26666666V384h546.13333334v-136.53333333h68.26666666V588.8zM648.53333333 247.46666667H375.46666667v-68.26666667h273.06666666v68.26666667z m0-136.53333334H375.46666667v-68.26666666h273.06666666v68.26666666z"  horiz-adv-x="1024" />

    
    <glyph glyph-name="wodebaoming" unicode="&#58895;" d="M999.15093333 690.8055703699999c-22.69487408 23.30168889-68.08462222 23.66577778-166.75271111 23.66577778v89.92995555c0 28.27757037-22.9376 51.21517037-51.21517037 51.21517038h-535.21066667c-28.27757037 0-51.21517037-22.9376-51.21517036-51.21517038v-85.31816295c-0.24272592-1.57771852-0.48545185-3.03407408-0.72817779-4.6117926-107.04213333-0.12136297-144.78601482-1.21362963-166.75271111-23.78714074-17.59762963-18.08308148-16.86945185-43.08385185-15.89854814-81.07045926 0.24272592-10.31585185 0.60681482-22.08805925 0.60681481-35.19525926 0-110.4402963 89.68722963-200.37025185 200.00616296-200.37025186 2.79134815 0 5.5826963 0.12136297 8.13131853 0.36408889 21.84533333-56.31241482 57.64740741-109.71211852 101.94488889-151.94642962 41.26340741-39.20023703 86.89588148-66.5069037 133.74198518-79.9781926v-152.43188148h-98.06127407c-13.1072 0-23.42305185-20.6317037-23.42305186-20.6317037s-12.50038518-26.94257778-21.72397037-44.29748149c-8.00995555-15.29173333 4.73315555-14.56355555 4.73315556-14.56355555h391.88100741s12.86447408-0.72817778 4.73315555 14.56355555c-9.10222222 17.3549037-21.72397037 44.29748148-21.72397037 44.29748149s-10.31585185 20.6317037-23.42305185 20.6317037h-86.1677037l-0.24272593-0.12136297c-0.84954075 0-1.57771852 0.12136297-2.42725927 0.12136297h-9.4663111V142.4877037c46.8461037 13.59265185 92.59994075 40.77795555 133.86334815 80.09955555 44.17611852 42.11294815 79.97819259 95.63401482 101.94488888 151.94642964 2.66998518-0.24272592 5.46133333-0.36408889 8.13131852-0.36408889C924.63407408 374.16959999999995 1014.44266667 464.09955555 1014.44266667 574.53985185c0 13.1072 0.36408889 24.87940741 0.60681481 35.31662223 0.9709037 37.86524445 1.57771852 62.98737778-15.89854815 80.94909629zM192.69404445 456.93914075c-62.38056297 9.8304-103.03715555 66.38554075-103.03715556 119.5425185 0 7.28177778-0.12136297 14.0781037-0.12136297 20.14625186-0.12136297 15.29173333-0.36408889 32.64663703 1.94180741 36.40888889 2.18453333 1.57771852 10.07312592 3.2768 35.55934815 3.2768 8.49540741 0 18.32580741-0.12136297 29.73392593-0.36408889 10.8013037-0.12136297 22.69487408-0.36408889 36.0448-0.48545186v-178.5249185z m493.58317037 108.01303703l-38.10797037-37.13706667c-17.71899259-17.3549037-28.88438518-51.57925925-24.63668148-75.97321481l8.98085925-52.4288c4.12634075-24.39395555-10.31585185-35.0738963-32.40391111-23.42305185l-47.08882963 24.75804444c-21.9666963 11.52948148-57.89013333 11.52948148-79.85682963 0l-47.08882963-24.75804444c-21.9666963-11.52948148-36.53025185-0.9709037-32.28254814 23.42305185l8.98085925 52.4288c4.2477037 24.51531852-6.91768889 58.73967408-24.75804444 75.97321481l-38.10797037 37.13706667c-17.84035555 17.3549037-12.25765925 34.46708148 12.37902223 37.9866074l52.67152592 7.64586667c24.51531852 3.51952592 53.64242963 24.75804445 64.68645925 46.96746667l23.54441483 47.69564445c11.04402963 22.33078518 29.00574815 22.33078518 39.9284148 0l23.54441482-47.69564445c11.04402963-22.33078518 40.17114075-43.44794075 64.68645926-46.96746667l52.55016296-7.64586667c24.63668148-3.51952592 30.21937778-20.6317037 12.37902223-37.9866074zM935.92082963 600.02607408c-0.24272592-9.58767408-0.48545185-19.17534815-0.48545185-28.76302223 0-67.35644445-49.51608889-107.04213333-101.70216296-114.80936296l-0.24272593 179.85991111c9.10222222 0 17.47626667 0.12136297 25.24349629 0.12136297 10.19448889 0.12136297 19.41807408 0.12136297 27.5493926 0.12136295 11.77220741 0 42.96248889 0 48.42382222-4.00497777 2.06317037-3.51952592 1.57771852-18.93262222 1.21362963-32.52527407z m0 0"  horiz-adv-x="1024" />

    
    <glyph glyph-name="tishi" unicode="&#58894;" d="M512 880.68844405a496.68844405 496.68844405 0 1 1 0-993.3768881 496.68844405 496.68844405 0 0 1 0 993.3768881z m0-786.41646554a62.13783703 62.13783703 0 1 0-0.08285045 124.19282362A62.13783703 62.13783703 0 0 0 512 94.27197851000005z m62.05498658 260.73036421c0-33.14017975-28.99765728-62.13783703-62.05498658-62.13783703-33.14017975 0-62.13783703 28.99765728-62.13783703 62.13783703V615.8155573700001c0 33.0573293 28.99765728 62.13783703 62.13783703 62.13783703 33.0573293 0 62.05498658-24.85513482 62.05498658-62.13783703V355.00234272z"  horiz-adv-x="1024" />

    
    <glyph glyph-name="shu" unicode="&#58887;" d="M1012 633.7v58.9h-32.5v-616.8c-150.7-24.5-288.3-46.7-424.6-68.9 0.2-0.5 15.7-32.8 26-33l384.5 0.1c16.8 0.9 44.6 46.5 46.5 73.4V633.7zM684 767.2c-98.2-17.8-152.4-65.5-147.8-182.2l0.1-540.2c189.9 73.2 388.8 57.7 388.8 57.7l-0.3 53.3s0.3 413.5 0.3 638.1c-88-9.2-165.5-13.1-241.1-26.7zM60.2-25.9l382.6-0.1c10.4 0.3 25.9 33 25.9 33.1-136.3 22.1-272 44.3-422.7 68.9V692.5H12v-643.3c0.8-26.6 31.1-74.3 48.2-75.1zM468.7 7zM490.7 44.9l0.1 540.2c4.7 116.7-49.7 164.4-147.8 182.2-75.6 13.6-153 17.4-241.1 26.8 0-224.5 0.3-638 0.3-638l-0.4-53.3c0.1-0.2 199 15.3 388.9-57.9zM554.9 7v0.1z"  horiz-adv-x="1024" />

    
    <glyph glyph-name="jigouguanli" unicode="&#58885;" d="M985.35223413 737.4952507c-51.5053627 65.58993909-140.29342762 84.64554245-212.64948673 50.53877412-112.53852708 82.02194489-261.39316781 106.46282747-399.33916603 56.61447375-26.78831197-9.66588576-40.59672019-39.35396347-30.93083444-66.00419134 9.66588576-26.78831197 39.35396347-40.45863612 66.00419134-30.93083443 98.17778252 35.62569324 203.39785324 21.54111683 286.52447078-31.3450867-34.24485242-60.06657581-30.93083443-137.3936619 14.36074457-195.1128083 59.79040765-76.22241343 169.98150532-89.47848533 246.20391873-29.82616177 76.22241343 59.65232355 89.61656942 169.84342124 29.82616178 246.06583467zM309.43065125 189.85378029000003c-29.13574137 24.57896666-53.71470801 53.8527921-72.90839544 87.13105592-31.62125485 54.68129659-45.84391532 116.40488139-43.22031777 177.16187759 68.90395707 0.55233633 134.07964391 41.97756103 161.28220813 110.05301361 36.17802957 89.89273758-7.45654045 191.9368744-97.34927802 228.11490396s-191.9368744-7.45654045-228.11490397-97.34927803c-31.2070026-77.60325425-2.89976573-164.32005793 63.10442561-209.74972101-9.25163351-88.51189675 8.69929718-179.64739108 54.81938068-259.73615882 25.13130297-43.77265408 57.44297824-82.29811305 95.9684372-114.47170423 9.66588576-8.14696086 21.40303275-12.15139925 33.14017974-12.15139924 14.7749968 0 29.41190953 6.2137837 39.49204756 18.36518294 18.50326702 21.817285 15.6035013 54.26704435-6.21378372 72.63222731zM900.7066917 416.44975935c-27.89298463 5.79953147-54.95746475-12.42756741-60.61891215-40.45863612-18.50326702-92.1020829-75.80816118-171.91468247-157.13968565-219.00135454-4.00443838-2.3474294-8.00887677-4.41869063-12.15139924-6.62803594-34.93527282 59.51423947-103.42497763 95.2780168-176.05720494 84.92171061-95.83035312-13.67032415-162.52496487-102.45838907-148.85464074-198.28874219 13.67032415-95.83035312 102.45838907-162.52496487 198.2887422-148.85464072 82.57428122 11.737147 143.46936151 79.39834732 150.09739746 159.2109469 13.67032415 6.07569962 27.06448014 12.84181965 40.18246795 20.43644418 107.01516379 61.86166887 182.40907274 166.80557141 206.71187122 288.04339567 5.66144737 27.89298463-12.42756741 55.09554883-40.45863611 60.61891215z"  horiz-adv-x="1024" />

    
    <glyph glyph-name="shangwuzhantubiaoku__jishutuandui_hover" unicode="&#58971;" d="M102.4 593.3511111099999h36.40888889v-18.20444444h-36.40888889zM102.4 566.04444445h45.51111111v-18.20444445h-45.51111111zM102.4 538.73777778h63.71555555v-18.20444445h-63.71555555zM912.49777778 92.72888889000001V183.75111111h18.20444444v-91.02222222zM885.19111111 92.72888889000001v54.61333333h18.20444444v-54.61333333zM912.49777778 201.95555554999999v27.30666667h18.20444444v-27.30666667zM694.04444445 91.81866666999997h117.41866666c7.28177778 0 16.384 2.73066667 16.384 10.92266666a81.00977778 81.00977778 0 0 1-25.48622222 60.07466667 117.41866667 117.41866667 0 0 1-65.536 30.03733333 14.56355555 14.56355555 0 0 0-8.192 3.64088889 10.01244445 10.01244445 0 0 0-2.73066667 5.46133333 88.29155555 88.29155555 0 0 1 22.75555556 37.31911112 55.52355555 55.52355555 0 0 0 6.37155555 12.74311111 75.54844445 75.54844445 0 0 1 19.11466667 27.30666667 40.96 40.96 0 0 1-1.82044445 37.3191111 169.30133333 169.30133333 0 0 1 5.46133334 25.48622223 94.66311111 94.66311111 0 0 1 0 29.12711111 111.95733333 111.95733333 0 0 1-23.66577778 49.152 45.51111111 45.51111111 0 0 1-38.22933333 19.11466666 47.33155555 47.33155555 0 0 1-31.85777778 17.29422223 152.00711111 152.00711111 0 0 1-30.94755555 1.82044444h-3.6408889l-278.528-1.82044444a152.00711111 152.00711111 0 0 1-30.94755555 1.82044444 105.58577778 105.58577778 0 0 1-58.25422222-16.384 85.56088889 85.56088889 0 0 1-33.67822223-44.60088889 137.44355555 137.44355555 0 0 1-7.28177777-45.51111111 110.13688889 110.13688889 0 0 1 5.46133333-34.58844444 40.96 40.96 0 0 1-0.91022222-36.40888889 76.45866667 76.45866667 0 0 1 19.11466666-27.30666667h0.91022223a88.29155555 88.29155555 0 0 0 6.37155555-12.74311111 90.112 90.112 0 0 1 24.576-39.13955556 10.01244445 10.01244445 0 0 0-2.73066666-4.5511111 14.56355555 14.56355555 0 0 0-8.192-3.6408889 117.41866667 117.41866667 0 0 1-65.536-30.03733333 80.09955555 80.09955555 0 0 1-25.48622222-59.16444444c0-8.192 4.55111111-10.92266667 11.83288888-10.92266667H694.04444445M694.95466667 91.81866666999997a18.20444445 18.20444445 0 0 1 18.20444444 18.20444444 101.03466667 101.03466667 0 0 1-31.85777778 74.63822222 147.456 147.456 0 0 1-82.83022222 37.31911112 18.20444445 18.20444445 0 0 0-10.92266666 4.5511111 12.74311111 12.74311111 0 0 0-3.6408889 6.37155556 110.13688889 110.13688889 0 0 1 30.03733334 48.24177778 70.08711111 70.08711111 0 0 0 8.192 16.384h0.91022222a94.66311111 94.66311111 0 0 1 23.66577778 34.58844444 51.88266667 51.88266667 0 0 1-2.73066667 47.33155556 212.08177778 212.08177778 0 0 1 6.37155556 31.85777778 119.23911111 119.23911111 0 0 1 0 36.40888888 140.17422222 140.17422222 0 0 1-29.12711111 60.9848889c-12.74311111 15.47377778-29.12711111 25.48622222-48.24177778 23.66577777a59.16444445 59.16444445 0 0 1-40.04977778 21.84533333 191.14666667 191.14666667 0 0 1-38.22933333 1.82044445 131.98222222 131.98222222 0 0 1-72.81777778-20.93511111 107.40622222 107.40622222 0 0 1-41.87022222-56.43377778v-1.82044444a172.94222222 172.94222222 0 0 1-9.10222223-57.344 138.35377778 138.35377778 0 0 1 6.37155556-43.69066667 51.88266667 51.88266667 0 0 1-1.82044444-45.51111111 95.57333333 95.57333333 0 0 1 23.66577778-34.58844444h0.91022222a110.13688889 110.13688889 0 0 0 7.28177778-16.384 113.77777778 113.77777778 0 0 1 30.94755555-49.152 12.74311111 12.74311111 0 0 0-2.73066667-5.46133334 18.20444445 18.20444445 0 0 0-10.92266666-4.55111111 147.456 147.456 0 0 1-82.83022222-37.31911111 101.03466667 101.03466667 0 0 1-31.85777778-74.63822222 18.20444445 18.20444445 0 0 1 18.20444444-18.20444445zM965.29066667 748.08888889H58.70933333A56.43377778 56.43377778 0 0 1 2.27555555 691.65511111v-615.31022222a56.43377778 56.43377778 0 0 1 56.43377778-56.43377778h905.67111112a56.43377778 56.43377778 0 0 1 56.43377777 56.43377778V691.65511111a56.43377778 56.43377778 0 0 1-55.52355555 56.43377778zM20.48 691.65511111a38.22933333 38.22933333 0 0 0 38.22933333 38.22933334h905.67111112a38.22933333 38.22933333 0 0 0 38.22933333-38.22933334V657.06666667H20.48zM965.29066667 38.115555549999954H58.70933333a38.22933333 38.22933333 0 0 0-38.22933333 38.22933334V638.8622222199999h983.04v-562.51733333a38.22933333 38.22933333 0 0 0-38.22933333-38.22933334zM210.71644445 690.74488889m-16.384 0a16.384 16.384 0 1 1 32.768 0 16.384 16.384 0 1 1-32.768 0ZM144.27022222 690.74488889m-16.384 0a16.384 16.384 0 1 1 32.768 0 16.384 16.384 0 1 1-32.768 0ZM77.824 690.74488889m-16.384 0a16.384 16.384 0 1 1 32.768 0 16.384 16.384 0 1 1-32.768 0Z"  horiz-adv-x="1024" />

    
    <glyph glyph-name="paiming" unicode="&#58882;" d="M476.15251911 665.43922176c-218.37634446 0-395.40857173-177.02873429-395.40857173-395.40857173 0-218.37634446 177.03222727-395.40857173 395.40857173-395.40857174s395.40857173 177.03222727 395.40857174 395.40857174C871.56109085 488.41048747 694.52886357 665.43922176 476.15251911 665.43922176zM679.46637881 305.29598350000003l-77.9623606-75.99353856 18.4040118-107.30608867c6.18124288-36.02445312-14.39767211-51.77736533-47.3879734-34.43169736l-96.36637242 50.66429896-96.3663724-50.66429896c-32.34993835-17.00685824-53.69146595-2.30646898-47.38797341 34.43169736l18.40401181 107.30608867-77.96236061 75.99353856c-26.1710245 25.50970482-18.78357219 50.34994005 18.10013071 55.70802575l107.74037162 15.65627505 48.18435072 97.63196132c16.17671509 32.77374123 42.08228011 33.42225408 58.57684822 0l48.18435072-97.63196132 107.74037162-15.65627505C697.53507385 355.74954439 706.15784334 331.31215645 679.46637881 305.29598350000003zM845.78592654 893.37908565c-0.77542059 0-243.70674802 0-244.48216747 0-13.19379171 0-23.77141248-9.23635257-26.87425877-21.4649435l-75.36598357-148.6024704c0 0 161.36896512-9.709056 256.69096562-101.49974926l112.56404536 227.1481435c3.33687011 4.63738766 5.71319637 10.02574507 5.71319638 16.1767151C874.02939619 880.73367666 861.38398834 893.37908565 845.78592654 893.37908565zM449.25613966 723.31167175L373.89015609 871.91414215c-3.10284629 12.22859093-13.68046706 21.4649435-26.87425878 21.4649435-0.77542059 0-243.70674802 0-244.48216746 0-15.59689671 0-28.24346965-12.64657294-28.24346966-28.24346965 0-6.15097117 2.37516231-11.53932857 5.71319638-16.17671509l112.56404537-227.1481435C287.88717341 713.60261461 449.25613966 723.31167175 449.25613966 723.31167175z"  horiz-adv-x="1024" />

    
    <glyph glyph-name="index" unicode="&#58880;" d="M566.192 844.056a76.944 76.944 0 0 1-103.392 0L44.72 447.072a38.568 38.568 0 0 1 51.648-57.288l6.648 6.312V-18.24000000000001a77.136 77.136 0 0 1 77.136-77.232h224.472v232.224a54.312 54.312 0 0 0 54.336 54.384h105.624a54.312 54.312 0 0 0 54.336-54.384v-232.224h229.8a77.136 77.136 0 0 1 77.16 77.232V391.032c17.136-15.504 41.448-14.328 55.704 1.56a38.568 38.568 0 0 1-2.784 54.48L566.192 844.032z"  horiz-adv-x="1024" />

    
    <glyph glyph-name="renyuanpeixun" unicode="&#58883;" d="M100.48 95.78666667000005c0-49.6 36.8-89.81333333 82.13333333-89.81333334s82.13333333 40.21333333 82.13333334 89.81333334-36.8 89.81333333-82.13333334 89.81333333-82.13333333-40.21333333-82.13333333-89.81333333z m0 0M782.08 2.8799999999999955c0-32.10666667 15.68-61.65333333 41.06666667-77.76 25.38666667-16 56.74666667-16 82.13333333 0 25.38666667 16 41.06666667 45.65333333 41.06666667 77.76s-15.68 61.65333333-41.06666667 77.76c-25.38666667 16-56.74666667 16-82.13333333 0-25.49333333-16.10666667-41.06666667-45.65333333-41.06666667-77.76z m0 0M50.77333333 499.73333333l38.93333334 11.84L167.46666667 217.81333332999998l-37.44-14.93333333-79.25333334 296.85333333z m0 0M885.76 124.15999999999997c38.93333333-7.89333333 69.86666667-37.76 84.26666667-76.37333333 10.77333333 46.50666667-5.76 107.84-61.97333334 179.52C813.01333333 350.18666667 648.74666667 380.79999999999995 648.74666667 380.79999999999995l-111.68-95.25333333L425.38666667 380.79999999999995s-164.26666667-30.72-259.30666667-153.49333333c-2.88-3.94666667-5.76-7.04-7.89333333-10.98666667 7.89333333 1.6 15.89333333 3.2 24.53333333 3.2 62.72 0 113.06666667-55.14666667 113.06666667-123.62666667S245.33333333-27.73333333000005 182.72-27.73333333000005c-7.25333333 0-14.4 0.74666667-21.65333333 2.34666666 2.13333333-1.6 4.37333333-2.34666667 6.50666666-3.2 52.58666667-26.77333333 131.84-48.85333333 224-59.09333333v297.6s146.24 0 232-67.73333333v-234.66666667c10.13333333 0.74666667 20.90666667 1.6 30.93333334 2.34666667V142.29333333c85.76 67.73333333 232 67.73333333 232 67.73333334v-85.86666667h-0.74666667z m0 0M334.61333333 639.89333333c0-121.81333333 90.34666667-220.48 201.70666667-220.48 111.36 0 201.70666667 98.66666667 201.70666667 220.48s-90.24 220.48-201.6 220.48c-111.46666667 0-201.81333333-98.66666667-201.81333334-220.48z m0 0"  horiz-adv-x="1024" />

    
    <glyph glyph-name="zhengcewenjian" unicode="&#58884;" d="M942.6 801.2h-16.4l-410.1-57.9L106 801.2H89.6C73.2 793 65 784.7 65 768.2v-609.9c0-24.7 32.8-65.9 49.2-82.4l377.3-109h41l377.3 109c24.6 16.5 49.2 65.9 49.2 90.7V776.4c0 8.3-8.2 24.8-16.4 24.8z m-557.7-503l-90.2 57.7-73.8-57.7 24.6 107.1-75.5 66h100.1l32.8 107.1 32.8-107.1h98.4l-82-74.2 32.8-98.9z m442.9-26.3l-172.2-39.7c-16.4-8.2-32.8 8.2-41 24.7-8.2 16.5 0 33 16.4 41.2l180.4 31.4c16.4 8.2 32.8 0 41-16.5 0-16.4-8.2-41.1-24.6-41.1zM606.3 397.1c0 8.2 8.2 33 24.6 41.2L811.3 478c24.6 0 41-16.5 41-33s-8.2-33-24.6-41.2l-180.4-31.4c-16.4-8.3-32.8 0-41 24.7z m221.5 161.6L647.3 519c-16.4-8.2-32.8 8.2-41 24.7-8.2 16.5 8.2 33 16.4 41.2l188.6 31.4c16.4 8.2 32.8-8.2 41-24.7 0.1-8.2-8.1-32.9-24.5-32.9z"  horiz-adv-x="1024" />

    
    <glyph glyph-name="iconfont-copy" unicode="&#59722;" d="M535.53995573 126.58900038000002c2.42921935 1.60345445 4.73400839 3.47132336 6.87053371 5.60784865 0.04666139 0.04807536 0.08625284 0.09897867 0.13291422 0.148468L983.34349738 573.1439968c17.04836896 17.04695497 17.04836896 44.70300941-0.0141398 61.76551817-17.04836896 17.04836896-44.70300941 17.04836896-61.76551816 0l-410.04317898-410.04317896L101.47889547 634.92365478c-17.04836896 17.04836896-44.71856319 17.03422913-61.78107197-0.01413981-17.04554099-17.04836896-17.04554099-44.71856319 0-61.76551817l440.80009373-440.79867977c0.04666139-0.04948934 0.08625284-0.10039264 0.13574218-0.148468C495.54833103 117.26662364000003 518.59904934 115.40299667 535.53995573 126.58900038000002z"  horiz-adv-x="1024" />

    
    <glyph glyph-name="minbanjigou" unicode="&#58888;" d="M860.61511111 892.58666667H166.00177778c-31.85777778-0.11377778-57.91288889-30.37866667-57.91288889-67.92533334v-881.43644444c0.11377778-37.31911111 25.94133333-67.81155555 57.91288889-67.92533334h691.76888889c31.85777778 0.11377778 57.91288889 30.37866667 57.91288888 67.92533334V824.66133333c2.84444445 37.31911111-23.32444445 67.92533333-55.06844444 67.92533334zM449.30844445 660.82133333l59.8471111 108.20266667 59.84711112-108.20266667 125.38311111-22.75555555-85.44711111-88.29155556 17.06666666-122.53866667L512 478.54933333 397.99466667 427.23555555l17.06666666 122.53866667-85.44711111 88.29155556 119.69422223 22.75555555z m140.17422222-624.64H219.136v57.00266667h370.34666667v-57.00266667z m199.45244444 113.55022222H219.136v57.11644445h566.95466667v-57.11644445h2.84444444z m0 113.43644445H219.136V320.28444445h566.95466667v-57.00266667h2.84444444z m0 0"  horiz-adv-x="1024" />

    
    <glyph glyph-name="ketiyanjiu" unicode="&#58889;" d="M982.92622222-76.11733332999995l-94.208 94.208c-2.73066667 2.73066667-2.73066667 2.73066667-5.34755555 2.73066666 26.96533333 37.66044445 43.12177778 80.78222222 43.12177778 131.98222222 0 121.17333333-96.93866667 218.112-218.112 218.112-121.17333333 0-218.112-96.93866667-218.112-218.112 0-121.17333333 96.93866667-218.112 218.112-218.112 51.2 0 99.66933333 18.88711111 137.32977777 48.46933334 0-2.73066667 2.73066667-2.73066667 2.73066667-5.34755556l94.208-94.208c10.80888889-10.80888889 29.58222222-10.80888889 40.39111111 0 10.69511111 10.69511111 10.69511111 26.85155555-0.11377778 40.27733334z m-274.65955555 69.97333333M591.64444445 695.9786666699999h193.64977777l-229.03466667 194.56v-152.576c-0.11377778-23.09688889 15.81511111-41.984 35.3848889-41.984zM433.94844445 54.044444450000015H174.76266667v66.44622222h246.55644444c-0.45511111 6.25777778-0.91022222 12.51555555-0.91022222 18.88711111 0 48.24177778 12.40177778 93.63911111 34.13333333 133.12H174.76266667v66.44622222h330.752c49.83466667 47.90044445 117.41866667 77.48266667 191.94311111 77.48266667 30.72 0 60.07466667-5.23377778 87.72266667-14.44977778V629.1911111100001H556.14577778c-39.13955555 0-70.88355555 18.88711111-70.88355556 65.30844444V892.58666667h-345.88444444C80.55466667 892.58666667 32.99555555 874.83733333 32.99555555 805.20533333v-809.75644444c0-69.632 47.67288889-106.95111111 106.38222223-106.95111111h439.296c-1.024 0.68266667-1.93422222 1.47911111-2.84444445 2.16177777-66.90133333 32.88177778-118.67022222 91.59111111-141.88088888 163.3848889zM174.76266667 556.9422222200001H378.88v-66.44622222H174.76266667V556.9422222200001z"  horiz-adv-x="1024" />

    
    <glyph glyph-name="xin1" unicode="&#58890;" d="M890.98666667 722.66666667H133.01333333c-53.76 0-97.81333333-44.05333333-97.81333333-97.81333334v-311.78666666c0-53.76 44.05333333-97.81333333 97.81333333-97.81333334h130.77333334v-169.92l193.17333333 169.92h434.02666667c53.76 0 97.81333333 44.05333333 97.81333333 97.81333334V624.8533333299999c0 53.76-44.05333333 97.81333333-97.81333333 97.81333334z m-535.46666667-361.28H285.86666667l-80.64 121.06666666 3.62666666-51.30666666v-70.93333334h-70.93333333V583.89333333h68.48l80.64-121.06666666-2.45333333 51.30666666v70.93333334h70.93333333v-223.68z m229.86666667-1.17333334H398.29333333V585.06666667h183.36v-52.58666667h-108.8v-31.78666667h91.73333334v-52.58666666h-91.73333334v-35.41333334h112.42666667v-52.48z m267.73333333 0H779.73333333l-25.70666666 129.6h-1.17333334l-25.70666666-129.6h-72.10666667l-56.21333333 223.68H670.93333333l24.42666667-138.13333333h1.17333333l26.88 138.13333333h61.12l26.88-138.13333333 25.70666667 138.13333333h70.93333333l-54.93333333-223.68z"  horiz-adv-x="1024" />

    
    <glyph glyph-name="shizipeixun" unicode="&#58891;" d="M954.77333333 223.14666666999995l-36.90666666-40.32-82.13333334 89.81333333 36.90666667 40.32c13.65333333 14.93333333 35.73333333 14.93333333 49.38666667 0l32.74666666-35.84c13.54666667-14.93333333 13.54666667-39.04 0-53.97333333zM897.28 160.32000000000005L677.54666667-80h-82.13333334v89.81333333l219.73333334 240.32zM275.2 641.6C275.2 520.53333333 365.01333333 422.4 475.62666667 422.4c110.72 0 200.42666667 98.13333333 200.42666666 219.2S586.34666667 860.8 475.62666667 860.8C365.01333333 860.8 275.2 762.66666667 275.2 641.6z m0 0M547.2 35.51999999999998l234.24 246.29333333c-104.21333333 99.73333333-202.98666667 102.4-202.98666667 102.4l-106.56-94.50666666-106.56 94.50666666s-135.36-3.2-256.32-162.02666666 15.04-244.26666667 15.04-244.26666667 154.13333333-70.50666667 347.52-70.61333333h0.42666667c26.77333333 0 52.8 1.38666667 77.76 3.73333333L547.2 35.51999999999998z"  horiz-adv-x="1024" />

    


  </font>
</defs>
</svg>
